<svg width="131" height="28" viewBox="0 0 131 28" fill="none" xmlns="http://www.w3.org/2000/svg">
    <g clip-path="url(#clip0_5_592)">
    <rect width="27.792" height="27.792" rx="6" fill="#0B68F7"/>
    <path d="M13.6748 6.349L13.6758 6.34998L13.6777 6.349L13.6768 6.34998C13.885 6.35319 14.0869 6.4222 14.252 6.54919C14.4174 6.67649 14.5374 6.85408 14.5938 7.05505L17.4717 17.2904L18.8877 13.517L18.9492 13.3832C19.0208 13.2555 19.1209 13.145 19.2422 13.0609C19.4039 12.9488 19.5962 12.8892 19.793 12.889H42.1826C42.4391 12.8891 42.6848 12.991 42.8662 13.1722C43.0477 13.3537 43.1504 13.6002 43.1504 13.8568C43.1503 14.1133 43.0476 14.3591 42.8662 14.5404C42.6848 14.7217 42.4391 14.8236 42.1826 14.8236H20.4639L18.2461 20.7367C18.1745 20.9274 18.0448 21.0909 17.875 21.2035C17.705 21.3161 17.5035 21.3722 17.2998 21.3636C17.0961 21.3551 16.9002 21.2821 16.7402 21.1556C16.6202 21.0607 16.5253 20.9389 16.4619 20.8011L16.4092 20.6586L13.6123 10.7152L12.541 14.1449C12.4796 14.3416 12.3564 14.514 12.1904 14.6361C12.0661 14.7275 11.9224 14.7876 11.7715 14.8119L11.6182 14.8236H-9.18262C-9.43911 14.8236 -9.68481 14.7217 -9.86621 14.5404C-10.0476 14.3591 -10.1503 14.1133 -10.1504 13.8568C-10.1504 13.6002 -10.0477 13.3537 -9.86621 13.1722C-9.68482 12.991 -9.43907 12.8891 -9.18262 12.889H10.9072L12.7383 7.02771L12.7959 6.88318C12.8653 6.74439 12.9677 6.62342 13.0947 6.53162C13.2626 6.41034 13.4649 6.34774 13.6719 6.34998L13.6729 6.349H13.6748Z" fill="white" stroke="white" stroke-width="0.3"/>
    </g>
    <path d="M36.5339 22.072C36.1232 22.072 35.8079 21.9547 35.5879 21.72C35.3679 21.4853 35.2579 21.1627 35.2579 20.752V7.52999C35.2579 7.10466 35.3752 6.782 35.6099 6.562C35.8446 6.32733 36.1672 6.20999 36.5779 6.20999C36.9446 6.20999 37.2306 6.28333 37.4359 6.43C37.6559 6.562 37.8539 6.79666 38.0299 7.134L43.4639 17.188H42.7599L48.1939 7.134C48.3699 6.79666 48.5606 6.562 48.7659 6.43C48.9712 6.28333 49.2572 6.20999 49.6239 6.20999C50.0346 6.20999 50.3499 6.32733 50.5699 6.562C50.7899 6.782 50.8999 7.10466 50.8999 7.52999V20.752C50.8999 21.1627 50.7899 21.4853 50.5699 21.72C50.3646 21.9547 50.0492 22.072 49.6239 22.072C49.2132 22.072 48.8979 21.9547 48.6779 21.72C48.4579 21.4853 48.3479 21.1627 48.3479 20.752V10.566H48.8319L44.2119 18.992C44.0652 19.2413 43.9112 19.4247 43.7499 19.542C43.5886 19.6593 43.3686 19.718 43.0899 19.718C42.8112 19.718 42.5839 19.6593 42.4079 19.542C42.2319 19.41 42.0779 19.2267 41.9459 18.992L37.2819 10.544H37.8099V20.752C37.8099 21.1627 37.6999 21.4853 37.4799 21.72C37.2746 21.9547 36.9592 22.072 36.5339 22.072ZM59.3515 22.116C58.1342 22.116 57.0855 21.8887 56.2055 21.434C55.3255 20.9793 54.6435 20.334 54.1595 19.498C53.6902 18.662 53.4555 17.672 53.4555 16.528C53.4555 15.4133 53.6828 14.438 54.1375 13.602C54.6068 12.766 55.2448 12.1133 56.0515 11.644C56.8728 11.16 57.8042 10.918 58.8455 10.918C59.6082 10.918 60.2902 11.0427 60.8915 11.292C61.5075 11.5413 62.0282 11.9007 62.4535 12.37C62.8935 12.8393 63.2235 13.4113 63.4435 14.086C63.6782 14.746 63.7955 15.494 63.7955 16.33C63.7955 16.594 63.7002 16.7993 63.5095 16.946C63.3335 17.078 63.0768 17.144 62.7395 17.144H55.6775V15.56H61.8595L61.5075 15.89C61.5075 15.2153 61.4048 14.6507 61.1995 14.196C61.0088 13.7413 60.7228 13.3967 60.3415 13.162C59.9748 12.9127 59.5128 12.788 58.9555 12.788C58.3395 12.788 57.8115 12.9347 57.3715 13.228C56.9462 13.5067 56.6162 13.91 56.3815 14.438C56.1615 14.9513 56.0515 15.5673 56.0515 16.286V16.44C56.0515 17.6427 56.3302 18.5447 56.8875 19.146C57.4595 19.7327 58.2955 20.026 59.3955 20.026C59.7768 20.026 60.2022 19.982 60.6715 19.894C61.1555 19.7913 61.6102 19.6227 62.0355 19.388C62.3435 19.212 62.6148 19.1387 62.8495 19.168C63.0842 19.1827 63.2675 19.2633 63.3995 19.41C63.5462 19.5567 63.6342 19.74 63.6635 19.96C63.6928 20.1653 63.6488 20.378 63.5315 20.598C63.4288 20.818 63.2455 21.0087 62.9815 21.17C62.4682 21.4927 61.8742 21.7347 61.1995 21.896C60.5395 22.0427 59.9235 22.116 59.3515 22.116ZM70.1093 22.116C69.1707 22.116 68.342 21.8887 67.6233 21.434C66.9193 20.9793 66.3693 20.334 65.9733 19.498C65.5773 18.6473 65.3793 17.65 65.3793 16.506C65.3793 15.3473 65.5773 14.3573 65.9733 13.536C66.3693 12.7 66.9193 12.0547 67.6233 11.6C68.342 11.1453 69.1707 10.918 70.1093 10.918C71.004 10.918 71.7813 11.138 72.4413 11.578C73.116 12.018 73.5707 12.5973 73.8053 13.316H73.5633V7.596C73.5633 7.14133 73.6807 6.79666 73.9153 6.562C74.15 6.32733 74.4873 6.20999 74.9273 6.20999C75.3673 6.20999 75.7047 6.32733 75.9393 6.562C76.1887 6.79666 76.3133 7.14133 76.3133 7.596V20.664C76.3133 21.1187 76.196 21.4707 75.9613 21.72C75.7267 21.9547 75.3893 22.072 74.9493 22.072C74.5093 22.072 74.172 21.9547 73.9373 21.72C73.7027 21.4707 73.5853 21.1187 73.5853 20.664V18.948L73.8273 19.608C73.6073 20.3707 73.16 20.9793 72.4853 21.434C71.8107 21.8887 71.0187 22.116 70.1093 22.116ZM70.8793 20.026C71.422 20.026 71.8987 19.894 72.3093 19.63C72.72 19.366 73.0353 18.9773 73.2553 18.464C73.49 17.936 73.6073 17.2833 73.6073 16.506C73.6073 15.3327 73.358 14.46 72.8593 13.888C72.3607 13.3013 71.7007 13.008 70.8793 13.008C70.3367 13.008 69.86 13.14 69.4493 13.404C69.0387 13.6533 68.716 14.042 68.4813 14.57C68.2613 15.0833 68.1513 15.7287 68.1513 16.506C68.1513 17.6647 68.4007 18.5447 68.8993 19.146C69.398 19.7327 70.058 20.026 70.8793 20.026ZM80.5287 22.05C80.0887 22.05 79.7514 21.918 79.5167 21.654C79.2821 21.39 79.1647 21.0233 79.1647 20.554V12.48C79.1647 11.996 79.2821 11.6293 79.5167 11.38C79.7514 11.116 80.0887 10.984 80.5287 10.984C80.9687 10.984 81.3061 11.116 81.5407 11.38C81.7901 11.6293 81.9147 11.996 81.9147 12.48V20.554C81.9147 21.0233 81.7974 21.39 81.5627 21.654C81.3281 21.918 80.9834 22.05 80.5287 22.05ZM80.5287 8.938C80.0154 8.938 79.6121 8.81333 79.3187 8.564C79.0401 8.3 78.9007 7.94066 78.9007 7.486C78.9007 7.01666 79.0401 6.65733 79.3187 6.40799C79.6121 6.15866 80.0154 6.034 80.5287 6.034C81.0567 6.034 81.4601 6.15866 81.7387 6.40799C82.0174 6.65733 82.1567 7.01666 82.1567 7.486C82.1567 7.94066 82.0174 8.3 81.7387 8.564C81.4601 8.81333 81.0567 8.938 80.5287 8.938ZM86.4442 22.072C85.9895 22.072 85.6375 21.9473 85.3882 21.698C85.1535 21.434 85.0362 21.0747 85.0362 20.62V7.816C85.0362 7.34666 85.1608 6.99466 85.4102 6.76C85.6595 6.51066 86.0115 6.386 86.4662 6.386H91.7682C93.4695 6.386 94.7822 6.81133 95.7062 7.662C96.6302 8.51266 97.0922 9.70066 97.0922 11.226C97.0922 12.7513 96.6302 13.9467 95.7062 14.812C94.7822 15.6627 93.4695 16.088 91.7682 16.088H87.8522V20.62C87.8522 21.0747 87.7348 21.434 87.5002 21.698C87.2655 21.9473 86.9135 22.072 86.4442 22.072ZM87.8522 13.866H91.3282C92.3255 13.866 93.0808 13.646 93.5942 13.206C94.1075 12.7513 94.3642 12.0913 94.3642 11.226C94.3642 10.3607 94.1075 9.708 93.5942 9.268C93.0808 8.828 92.3255 8.608 91.3282 8.608H87.8522V13.866ZM102.798 22.116C101.58 22.116 100.664 21.7713 100.048 21.082C99.4317 20.378 99.1237 19.3513 99.1237 18.002V7.596C99.1237 7.14133 99.2411 6.79666 99.4757 6.562C99.7104 6.32733 100.048 6.20999 100.488 6.20999C100.928 6.20999 101.265 6.32733 101.5 6.562C101.749 6.79666 101.874 7.14133 101.874 7.596V17.87C101.874 18.5447 102.013 19.0433 102.292 19.366C102.585 19.6887 102.996 19.85 103.524 19.85C103.641 19.85 103.751 19.85 103.854 19.85C103.956 19.8353 104.059 19.8207 104.162 19.806C104.367 19.7767 104.506 19.8353 104.58 19.982C104.653 20.114 104.69 20.3927 104.69 20.818C104.69 21.1847 104.616 21.4707 104.47 21.676C104.323 21.8813 104.081 22.006 103.744 22.05C103.597 22.0647 103.443 22.0793 103.282 22.094C103.12 22.1087 102.959 22.116 102.798 22.116ZM109.691 22.116C108.914 22.116 108.217 21.9693 107.601 21.676C107 21.368 106.523 20.9573 106.171 20.444C105.834 19.9307 105.665 19.3513 105.665 18.706C105.665 17.914 105.87 17.2907 106.281 16.836C106.692 16.3667 107.359 16.0293 108.283 15.824C109.207 15.6187 110.446 15.516 112.001 15.516H113.101V17.1H112.023C111.114 17.1 110.388 17.144 109.845 17.232C109.302 17.32 108.914 17.474 108.679 17.694C108.459 17.8993 108.349 18.1927 108.349 18.574C108.349 19.058 108.518 19.454 108.855 19.762C109.192 20.07 109.662 20.224 110.263 20.224C110.747 20.224 111.172 20.114 111.539 19.894C111.92 19.6593 112.221 19.344 112.441 18.948C112.661 18.552 112.771 18.0973 112.771 17.584V15.054C112.771 14.3207 112.61 13.7927 112.287 13.47C111.964 13.1473 111.422 12.986 110.659 12.986C110.234 12.986 109.772 13.0373 109.273 13.14C108.789 13.2427 108.276 13.4187 107.733 13.668C107.454 13.8 107.205 13.8367 106.985 13.778C106.78 13.7193 106.618 13.602 106.501 13.426C106.384 13.2353 106.325 13.03 106.325 12.81C106.325 12.59 106.384 12.3773 106.501 12.172C106.618 11.952 106.816 11.7907 107.095 11.688C107.77 11.4093 108.415 11.2113 109.031 11.094C109.662 10.9767 110.234 10.918 110.747 10.918C111.803 10.918 112.668 11.0793 113.343 11.402C114.032 11.7247 114.546 12.216 114.883 12.876C115.22 13.5213 115.389 14.3573 115.389 15.384V20.664C115.389 21.1187 115.279 21.4707 115.059 21.72C114.839 21.9547 114.524 22.072 114.113 22.072C113.702 22.072 113.38 21.9547 113.145 21.72C112.925 21.4707 112.815 21.1187 112.815 20.664V19.608H112.991C112.888 20.1213 112.683 20.5687 112.375 20.95C112.082 21.3167 111.708 21.6027 111.253 21.808C110.798 22.0133 110.278 22.116 109.691 22.116ZM119.544 22.072C119.104 22.072 118.767 21.9547 118.532 21.72C118.298 21.4707 118.18 21.1187 118.18 20.664V12.348C118.18 11.8933 118.298 11.5487 118.532 11.314C118.767 11.0793 119.097 10.962 119.522 10.962C119.948 10.962 120.278 11.0793 120.512 11.314C120.747 11.5487 120.864 11.8933 120.864 12.348V13.844L120.622 13.294C120.945 12.5167 121.444 11.93 122.118 11.534C122.808 11.1233 123.585 10.918 124.45 10.918C125.316 10.918 126.027 11.0793 126.584 11.402C127.142 11.7247 127.56 12.216 127.838 12.876C128.117 13.5213 128.256 14.3427 128.256 15.34V20.664C128.256 21.1187 128.139 21.4707 127.904 21.72C127.67 21.9547 127.332 22.072 126.892 22.072C126.452 22.072 126.108 21.9547 125.858 21.72C125.624 21.4707 125.506 21.1187 125.506 20.664V15.472C125.506 14.636 125.345 14.0273 125.022 13.646C124.714 13.2647 124.23 13.074 123.57 13.074C122.764 13.074 122.118 13.3307 121.634 13.844C121.165 14.3427 120.93 15.01 120.93 15.846V20.664C120.93 21.6027 120.468 22.072 119.544 22.072Z" fill="#0E0A2F"/>
    <defs>
    <clipPath id="clip0_5_592">
    <rect width="27.792" height="27.792" rx="6" fill="white"/>
    </clipPath>
    </defs>
    </svg>
    